<svg width="24" height="24" viewBox="0 0 24 24" fill="none" xmlns="http://www.w3.org/2000/svg">
<g clip-path="url(#clip0_747_950)">
<path d="M12.8022 9.4048C13.3354 10.4532 13.8195 11.5255 14.253 12.6181M12.8022 9.4048C9.94332 10.5515 6.82215 11.0335 3.6775 10.7617L1.84875 10.6037M12.8022 9.4048C15.2763 8.41246 17.554 6.92233 19.4804 4.99217M12.8022 9.4048C11.5504 6.94348 10.0279 4.61376 8.25386 2.46158M14.253 12.6181C16.5285 12.0363 18.9689 12.0016 21.3785 12.6094L22.2217 12.8221M14.253 12.6181C10.4641 13.5869 7.13239 16.0728 5.16148 19.6358M14.253 12.6181C15.344 15.3681 16.1145 18.2468 16.5408 21.1977M1.84875 10.6037C1.78621 11.0615 1.75391 11.5289 1.75391 12.0039C1.75391 15.0352 3.06978 17.7592 5.16148 19.6358M1.84875 10.6037C2.35727 6.88097 4.86468 3.79455 8.25386 2.46158M5.16148 19.6358C6.97598 21.2637 9.3743 22.2539 12.0039 22.2539C13.6329 22.2539 15.1731 21.8739 16.5408 21.1977M16.5408 21.1977C19.6947 19.6384 21.9309 16.5039 22.2217 12.8221M22.2217 12.8221C22.243 12.5522 22.2539 12.2793 22.2539 12.0039C22.2539 9.29167 21.2005 6.82548 19.4804 4.99217M19.4804 4.99217C17.6105 2.99902 14.9526 1.75391 12.0039 1.75391C10.6803 1.75391 9.41531 2.00478 8.25386 2.46158" stroke="#111728" stroke-width="1.7"/>
</g>
<defs>
<clipPath id="clip0_747_950">
<rect width="24" height="24" fill="white"/>
</clipPath>
</defs>
</svg>
